<svg height="700pt" viewBox="0 0 700 700" width="700pt" xmlns="http://www.w3.org/2000/svg" xmlns:xlink="http://www.w3.org/1999/xlink"><symbol id="a" overflow="visible"><path d="m23.453-1.4062c-1.2109.625-2.4688 1.1016-3.7812 1.4219s-2.6836.48438-4.1094.48438c-4.25 0-7.6172-1.1875-10.094-3.5625-2.4805-2.375-3.7188-5.5977-3.7188-9.6719 0-4.0703 1.2383-7.2969 3.7188-9.6719 2.4766-2.3828 5.8438-3.5781 10.094-3.5781 1.4258 0 2.7969.16406 4.1094.48438 1.3125.32422 2.5703.79688 3.7812 1.4219v5.2812c-1.2188-.83203-2.4219-1.4414-3.6094-1.8281-1.1875-.38281-2.4375-.57812-3.75-.57812-2.3438 0-4.1875.75-5.5312 2.25s-2.0156 3.5742-2.0156 6.2188c0 2.6367.67188 4.7109 2.0156 6.2188 1.3438 1.5 3.1875 2.25 5.5312 2.25 1.3125 0 2.5625-.19141 3.75-.57812 1.1875-.39453 2.3906-1.0078 3.6094-1.8438z"/></symbol><symbol id="b" overflow="visible"><path d="m17.156-13.922c-.53125-.25-1.0625-.42969-1.5938-.54688-.53125-.125-1.0625-.1875-1.5938-.1875-1.5742 0-2.7891.50781-3.6406 1.5156-.84375 1-1.2656 2.4453-1.2656 4.3281v8.8125h-6.125v-19.141h6.125v3.1406c.78125-1.25 1.6797-2.1602 2.7031-2.7344 1.0195-.58203 2.2422-.875 3.6719-.875.19531 0 .41406.011719.65625.03125.23828.023437.58594.058594 1.0469.10938z"/></symbol><symbol id="c" overflow="visible"><path d="m22.047-9.625v1.75h-14.312c.15625 1.4375.67578 2.5156 1.5625 3.2344.88281.71094 2.125 1.0625 3.7188 1.0625 1.2891 0 2.6094-.1875 3.9531-.5625 1.3516-.38281 2.7422-.96094 4.1719-1.7344v4.7188c-1.4492.54297-2.8984.95312-4.3438 1.2344-1.4492.28125-2.8984.42188-4.3438.42188-3.4609 0-6.1523-.87891-8.0781-2.6406-1.918-1.7578-2.875-4.2266-2.875-7.4062 0-3.125.94141-5.582 2.8281-7.375 1.8828-1.7891 4.4766-2.6875 7.7812-2.6875 3.0078 0 5.4141.90625 7.2188 2.7188 1.8125 1.8125 2.7188 4.2344 2.7188 7.2656zm-6.2969-2.0312c0-1.1641-.33984-2.1016-1.0156-2.8125-.67969-.70703-1.5625-1.0625-2.6562-1.0625-1.1797 0-2.1406.33594-2.8906 1-.74219.66797-1.1992 1.625-1.375 2.875z"/></symbol><symbol id="d" overflow="visible"><path d="m11.516-8.6094c-1.2734 0-2.2305.21875-2.875.65625-.64844.42969-.96875 1.0625-.96875 1.9062 0 .77344.25781 1.375.78125 1.8125.51953.4375 1.2383.65625 2.1562.65625 1.1562 0 2.125-.41016 2.9062-1.2344.78906-.82031 1.1875-1.8516 1.1875-3.0938v-.70312zm9.3438-2.3125v10.922h-6.1562v-2.8438c-.82422 1.168-1.75 2.0156-2.7812 2.5469-1.0234.53125-2.2656.79688-3.7344.79688-1.9805 0-3.5898-.57812-4.8281-1.7344-1.2422-1.1562-1.8594-2.6602-1.8594-4.5156 0-2.2383.76953-3.8789 2.3125-4.9219 1.5508-1.0508 3.9766-1.5781 7.2812-1.5781h3.6094v-.48438c0-.96875-.38672-1.6758-1.1562-2.125-.76172-.44531-1.9492-.67188-3.5625-.67188-1.3125 0-2.5391.13281-3.6719.39062-1.125.26172-2.1719.65234-3.1406 1.1719v-4.6562c1.3125-.32031 2.6289-.56641 3.9531-.73438 1.3203-.16406 2.6445-.25 3.9688-.25 3.4453 0 5.9375.68359 7.4688 2.0469 1.5312 1.3672 2.2969 3.5781 2.2969 6.6406z"/></symbol><symbol id="e" overflow="visible"><path d="m9.625-24.578v5.4375h6.2969v4.375h-6.2969v8.125c0 .88672.17578 1.4844.53125 1.7969.35156.3125 1.0508.46875 2.0938.46875h3.1406v4.375h-5.2344c-2.418 0-4.1328-.50391-5.1406-1.5156-1.0117-1.0078-1.5156-2.7188-1.5156-5.125v-8.125h-3.0312v-4.375h3.0312v-5.4375z"/></symbol><symbol id="f" overflow="visible"><path d="m15.969-16.344v-10.25h6.1406v26.594h-6.1406v-2.7656c-.84375 1.125-1.7773 1.9531-2.7969 2.4844-1.0117.51953-2.1836.78125-3.5156.78125-2.3555 0-4.293-.9375-5.8125-2.8125-1.5117-1.875-2.2656-4.2852-2.2656-7.2344 0-2.957.75391-5.375 2.2656-7.25 1.5195-1.875 3.457-2.8125 5.8125-2.8125 1.3203 0 2.4922.26562 3.5156.79688 1.0195.53125 1.9531 1.3555 2.7969 2.4688zm-4.0469 12.391c1.3125 0 2.3125-.47266 3-1.4219.69531-.95703 1.0469-2.3477 1.0469-4.1719 0-1.8203-.35156-3.2109-1.0469-4.1719-.6875-.95703-1.6875-1.4375-3-1.4375-1.293 0-2.2891.48047-2.9844 1.4375-.6875.96094-1.0312 2.3516-1.0312 4.1719 0 1.8242.34375 3.2148 1.0312 4.1719.69531.94922 1.6914 1.4219 2.9844 1.4219z"/></symbol><symbol id="g" overflow="visible"><path d="m13.125-3.9531c1.3125 0 2.3125-.47266 3-1.4219.6875-.95703 1.0312-2.3477 1.0312-4.1719 0-1.8203-.34375-3.2109-1.0312-4.1719-.6875-.95703-1.6875-1.4375-3-1.4375s-2.3203.48438-3.0156 1.4531c-.69922.96094-1.0469 2.3438-1.0469 4.1562 0 1.8047.34766 3.1875 1.0469 4.1562.69531.96094 1.7031 1.4375 3.0156 1.4375zm-4.0625-12.391c.84375-1.1133 1.7734-1.9375 2.7969-2.4688 1.0312-.53125 2.207-.79688 3.5312-.79688 2.3633 0 4.3008.9375 5.8125 2.8125 1.5195 1.875 2.2812 4.293 2.2812 7.25 0 2.9492-.76172 5.3594-2.2812 7.2344-1.5117 1.875-3.4492 2.8125-5.8125 2.8125-1.3242 0-2.5-.26562-3.5312-.79688-1.0234-.53125-1.9531-1.3516-2.7969-2.4688v2.7656h-6.125v-26.594h6.125z"/></symbol><symbol id="h" overflow="visible"><path d="m.42188-19.141h6.125l5.1406 12.984 4.375-12.984h6.125l-8.0469 20.953c-.8125 2.125-1.7617 3.6094-2.8438 4.4531-1.0742.85156-2.4922 1.2812-4.25 1.2812h-3.5469v-4.0156h1.9219c1.0312 0 1.7812-.16797 2.25-.5.47656-.32422.84766-.91406 1.1094-1.7656l.17188-.53125z"/></symbol><symbol id="i" overflow="visible"><path d="m26.141-1.8906c-1.6367.79297-3.3398 1.3906-5.1094 1.7969-1.7617.39453-3.5859.59375-5.4688.59375-4.25 0-7.6172-1.1875-10.094-3.5625-2.4805-2.375-3.7188-5.5977-3.7188-9.6719 0-4.1133 1.2578-7.3477 3.7812-9.7031 2.5312-2.3633 5.9922-3.5469 10.391-3.5469 1.6953 0 3.3203.16406 4.875.48438 1.5625.32422 3.0312.79688 4.4062 1.4219v5.2812c-1.418-.8125-2.8359-1.4141-4.25-1.8125-1.4062-.39453-2.8125-.59375-4.2188-.59375-2.625 0-4.6484.73438-6.0625 2.2031-1.418 1.4609-2.125 3.5469-2.125 6.2656 0 2.6992.67969 4.7891 2.0469 6.2656 1.3633 1.4688 3.3047 2.2031 5.8281 2.2031.6875 0 1.3203-.039063 1.9062-.125.58203-.09375 1.1094-.22656 1.5781-.40625v-4.9688h-4.0156v-4.4062h10.25z"/></symbol><symbol id="j" overflow="visible"><path d="m22.188-11.656v11.656h-6.1562v-8.9219c0-1.6562-.039062-2.7969-.10938-3.4219-.074219-.625-.20312-1.082-.39062-1.375-.24219-.40625-.5625-.71875-.96875-.9375s-.875-.32812-1.4062-.32812c-1.2734 0-2.2734.49609-3 1.4844-.73047.98047-1.0938 2.3398-1.0938 4.0781v9.4219h-6.125v-19.141h6.125v2.7969c.91406-1.1133 1.8906-1.9375 2.9219-2.4688 1.0391-.53125 2.1914-.79688 3.4531-.79688 2.207 0 3.8828.68359 5.0312 2.0469 1.1445 1.3555 1.7188 3.3242 1.7188 5.9062z"/></symbol><symbol id="k" overflow="visible"><path d="m15.531-26.594v4.0156h-3.375c-.86719 0-1.4688.15625-1.8125.46875s-.51562.85938-.51562 1.6406v1.3281h5.2344v4.375h-5.2344v14.766h-6.125v-14.766h-3.0312v-4.375h3.0312v-1.3281c0-2.082.57812-3.625 1.7344-4.625 1.1641-1 2.9727-1.5 5.4219-1.5z"/></symbol><symbol id="l" overflow="visible"><path d="m12.047-15.234c-1.3555 0-2.3906.49219-3.1094 1.4688-.71094.96875-1.0625 2.375-1.0625 4.2188 0 1.8359.35156 3.2422 1.0625 4.2188.71875.96875 1.7539 1.4531 3.1094 1.4531 1.332 0 2.3516-.48438 3.0625-1.4531.70703-.97656 1.0625-2.3828 1.0625-4.2188 0-1.8438-.35547-3.25-1.0625-4.2188-.71094-.97656-1.7305-1.4688-3.0625-1.4688zm0-4.375c3.2891 0 5.8633.89062 7.7188 2.6719 1.8516 1.7812 2.7812 4.2461 2.7812 7.3906 0 3.1367-.92969 5.5938-2.7812 7.375-1.8555 1.7812-4.4297 2.6719-7.7188 2.6719-3.3047 0-5.8867-.89062-7.75-2.6719-1.8672-1.7812-2.7969-4.2383-2.7969-7.375 0-3.1445.92969-5.6094 2.7969-7.3906 1.8633-1.7812 4.4453-2.6719 7.75-2.6719z"/></symbol><symbol id="m" overflow="visible"><path d="m20.672-15.969c.78125-1.1758 1.7031-2.0781 2.7656-2.7031s2.2344-.9375 3.5156-.9375c2.1953 0 3.8672.68359 5.0156 2.0469 1.1562 1.3555 1.7344 3.3242 1.7344 5.9062v11.656h-6.1562v-9.9844c.007813-.14453.015625-.29688.015625-.45312.007812-.16406.015625-.39453.015625-.6875 0-1.3516-.19922-2.332-.59375-2.9375-.39844-.61328-1.043-.92188-1.9375-.92188-1.1562 0-2.0547.48047-2.6875 1.4375-.63672.96094-.96484 2.3398-.98438 4.1406v9.4062h-6.1406v-9.9844c0-2.1133-.18359-3.4727-.54688-4.0781-.36719-.61328-1.0156-.92188-1.9531-.92188-1.1797 0-2.0859.48438-2.7188 1.4531-.63672.96094-.95312 2.3281-.95312 4.1094v9.4219h-6.1562v-19.141h6.1562v2.7969c.75-1.082 1.6094-1.8945 2.5781-2.4375.97656-.55078 2.0547-.82812 3.2344-.82812 1.3125 0 2.4727.32422 3.4844.96875 1.0195.63672 1.7891 1.5273 2.3125 2.6719z"/></symbol><symbol id="n" overflow="visible"><path d="m22.188-11.656v11.656h-6.1562v-8.8906c0-1.6758-.039062-2.8281-.10938-3.4531-.074219-.625-.20312-1.082-.39062-1.375-.24219-.40625-.5625-.71875-.96875-.9375s-.875-.32812-1.4062-.32812c-1.2734 0-2.2734.49609-3 1.4844-.73047.98047-1.0938 2.3398-1.0938 4.0781v9.4219h-6.125v-26.594h6.125v10.25c.91406-1.1133 1.8906-1.9375 2.9219-2.4688 1.0391-.53125 2.1914-.79688 3.4531-.79688 2.207 0 3.8828.68359 5.0312 2.0469 1.1445 1.3555 1.7188 3.3242 1.7188 5.9062z"/></symbol><symbol id="o" overflow="visible"><path d="m3.2188-25.516h7.3438l9.2812 17.5v-17.5h6.2344v25.516h-7.3438l-9.2812-17.5v17.5h-6.2344z"/></symbol><symbol id="p" overflow="visible"><path d="m2.7344-7.4531v-11.688h6.1562v1.9062c0 1.043-.007813 2.3516-.015625 3.9219-.011719 1.5625-.015625 2.6055-.015625 3.125 0 1.543.035156 2.6523.10938 3.3281.082031.67969.21875 1.168.40625 1.4688.25781.40625.58594.71875.98438.9375.40625.21094.875.3125 1.4062.3125 1.2695 0 2.2695-.48828 3-1.4688.72656-.97656 1.0938-2.3359 1.0938-4.0781v-9.4531h6.125v19.141h-6.125v-2.7656c-.92969 1.1172-1.9062 1.9375-2.9375 2.4688s-2.168.79688-3.4062.79688c-2.2109 0-3.8906-.67578-5.0469-2.0312-1.1562-1.3633-1.7344-3.3359-1.7344-5.9219z"/></symbol><symbol id="q" overflow="visible"><path d="m3.2188-25.516h10.922c3.2383 0 5.7266.72656 7.4688 2.1719 1.7383 1.4375 2.6094 3.4922 2.6094 6.1562 0 2.6797-.87109 4.7344-2.6094 6.1719-1.7422 1.4375-4.2305 2.1562-7.4688 2.1562h-4.3438v8.8594h-6.5781zm6.5781 4.7656v7.125h3.6406c1.2695 0 2.2539-.30469 2.9531-.92188.69531-.625 1.0469-1.5039 1.0469-2.6406 0-1.1445-.35156-2.0234-1.0469-2.6406-.69922-.61328-1.6836-.92188-2.9531-.92188z"/></symbol><symbol id="r" overflow="visible"><path d="m2.9375-19.141h6.125v18.797c0 2.5625-.62109 4.5156-1.8594 5.8594-1.2305 1.3516-3.0117 2.0312-5.3438 2.0312h-3.0156v-4.0156h1.0469c1.1641 0 1.9609-.26172 2.3906-.78125.4375-.52344.65625-1.5547.65625-3.0938zm0-7.4531h6.125v4.9844h-6.125z"/></symbol><symbol id="s" overflow="visible"><path d="m18.406-18.547v5c-.83594-.57031-1.6719-.99219-2.5156-1.2656-.83594-.28125-1.6992-.42188-2.5938-.42188-1.7109 0-3.043.5-4 1.5-.94922 1-1.4219 2.3984-1.4219 4.1875 0 1.7812.47266 3.1719 1.4219 4.1719.95703 1 2.2891 1.5 4 1.5.95703 0 1.8633-.14062 2.7188-.42188.86328-.28906 1.6602-.71875 2.3906-1.2812v5.0156c-.96094.35547-1.9336.61719-2.9219.79688-.98047.17578-1.9648.26562-2.9531.26562-3.4609 0-6.1641-.88281-8.1094-2.6562-1.9492-1.7695-2.9219-4.2344-2.9219-7.3906s.97266-5.6172 2.9219-7.3906c1.9453-1.7812 4.6484-2.6719 8.1094-2.6719 1 0 1.9844.089844 2.9531.26562.97656.17969 1.9531.44531 2.9219.79688z"/></symbol><path d="m545.3 191.8v-.69922-.69922-.69922-.69922-.69922-.69922s0-.69922-.69922-.69922v-.69922l-70-98c0-.69922-.69922-.69922-1.3984-1.3984-.69922-.69922-1.3984-.69922-2.1016-1.3984h-2.1016l-238-.011718h-2.1016c-.69922 0-1.3984.69922-2.1016 1.3984l-1.3984 1.3984-70 98v.69922l-.69922.69922v.69922.69922.69922.69922.69922.69922s0 .69922.69922.69922l189 280 2.1016 2.1016h.69922c2.1016.69922 4.1992.69922 5.6016 0h.69922l2.1016-2.1016 189-280c.69922.011719.69922-.6875.69922-.6875m-317.1-85.402 23.801 75.602h-77.699zm297.5 75.602h-77.699l23.801-75.602zm-97.301 14-78.398 249.9-78.398-249.9zm-153.3-14 74.898-80.5 74.898 80.5zm161-9.1016-70-74.898h93.102zm-172.2 0-23.098-74.898h93.102zm-7 23.102 72.102 228.9-154.7-228.9zm186.2 0h82.602l-154.7 228.9z"/><use x="70" xlink:href="#a" y="665"/><use x="95.6875" xlink:href="#b" y="665"/><use x="112.945312" xlink:href="#c" y="665"/><use x="136.683594" xlink:href="#d" y="665"/><use x="160.304688" xlink:href="#e" y="665"/><use x="177.035156" xlink:href="#c" y="665"/><use x="200.773438" xlink:href="#f" y="665"/><use x="238.011719" xlink:href="#g" y="665"/><use x="263.0625" xlink:href="#h" y="665"/><use x="298.0625" xlink:href="#i" y="665"/><use x="326.792969" xlink:href="#b" y="665"/><use x="344.054688" xlink:href="#d" y="665"/><use x="367.671875" xlink:href="#j" y="665"/><use x="392.585938" xlink:href="#e" y="665"/><use x="70" xlink:href="#k" y="700"/><use x="85.226562" xlink:href="#b" y="700"/><use x="102.488281" xlink:href="#l" y="700"/><use x="126.53125" xlink:href="#m" y="700"/><use x="175.1875" xlink:href="#e" y="700"/><use x="191.917969" xlink:href="#n" y="700"/><use x="216.835938" xlink:href="#c" y="700"/><use x="252.757812" xlink:href="#o" y="700"/><use x="282.050781" xlink:href="#l" y="700"/><use x="306.097656" xlink:href="#p" y="700"/><use x="331.011719" xlink:href="#j" y="700"/><use x="368.117188" xlink:href="#q" y="700"/><use x="393.765625" xlink:href="#b" y="700"/><use x="411.027344" xlink:href="#l" y="700"/><use x="435.074219" xlink:href="#r" y="700"/><use x="447.070312" xlink:href="#c" y="700"/><use x="470.808594" xlink:href="#s" y="700"/><use x="491.554687" xlink:href="#e" y="700"/></svg>