<svg width="50" height="50" viewBox="0 0 50 50" fill="none" xmlns="http://www.w3.org/2000/svg">
<rect width="50" height="50" fill="white"/>
<rect x="2" y="2" width="46" height="46" rx="10" fill="url(#paint0_linear_1_43)"/>
<path d="M30.879 22.7C28.78 21.3 28 20.033 28 18.04V17H29C29.2652 17 29.5196 16.8946 29.7071 16.7071C29.8946 16.5196 30 16.2652 30 16C30 15.7348 29.8946 15.4804 29.7071 15.2929C29.5196 15.1054 29.2652 15 29 15H21C20.7348 15 20.4804 15.1054 20.2929 15.2929C20.1054 15.4804 20 15.7348 20 16C20 16.2652 20.1054 16.5196 20.2929 16.7071C20.4804 16.8946 20.7348 17 21 17H22V18.04C22 20.033 21.22 21.3 19.121 22.7C18.2014 23.2545 17.4344 24.0295 16.8895 24.9549C16.3446 25.8802 16.0389 26.9268 16 28C16 31.859 20.037 35 25 35C29.963 35 34 31.859 34 28C33.9611 26.9268 33.6554 25.8802 33.1105 24.9549C32.5656 24.0295 31.7986 23.2545 30.879 22.7ZM26 30C26 29.8022 26.0586 29.6089 26.1685 29.4444C26.2784 29.28 26.4346 29.1518 26.6173 29.0761C26.8 29.0004 27.0011 28.9806 27.1951 29.0192C27.3891 29.0578 27.5673 29.153 27.7071 29.2929C27.847 29.4327 27.9422 29.6109 27.9808 29.8049C28.0194 29.9989 27.9996 30.2 27.9239 30.3827C27.8482 30.5654 27.72 30.7216 27.5556 30.8315C27.3911 30.9414 27.1978 31 27 31C26.7348 31 26.4804 30.8946 26.2929 30.7071C26.1054 30.5196 26 30.2652 26 30ZM20.232 24.359C22.1 23.115 24 21.392 24 18.04V17H26V18.04C26 21.392 27.9 23.115 29.768 24.358C30.4853 24.8224 31.0813 25.4515 31.506 26.193C28.9761 25.8189 26.3926 26.0966 24 27C22.1117 27.7093 20.0364 27.7446 18.125 27.1C18.4702 25.9603 19.2194 24.9857 20.232 24.359Z" fill="white"/>
<path d="M25 24C25.5523 24 26 23.5523 26 23C26 22.4477 25.5523 22 25 22C24.4477 22 24 22.4477 24 23C24 23.5523 24.4477 24 25 24Z" fill="white"/>
<defs>
<linearGradient id="paint0_linear_1_43" x1="53.5" y1="11.5" x2="25" y2="48" gradientUnits="userSpaceOnUse">
<stop stop-color="#414996"/>
<stop offset="1" stop-color="#B200F1"/>
</linearGradient>
</defs>
</svg>
