<svg width="25" height="25" viewBox="0 0 25 25" fill="none" xmlns="http://www.w3.org/2000/svg">
<rect width="25" height="25" fill="white"/>
<path d="M18.7056 10.47C16.49 8.93 15.6667 7.5363 15.6667 5.344V4.2H16.7222C17.0022 4.2 17.2707 4.08411 17.4686 3.87782C17.6666 3.67153 17.7778 3.39174 17.7778 3.1C17.7778 2.80826 17.6666 2.52847 17.4686 2.32218C17.2707 2.11589 17.0022 2 16.7222 2H8.27778C7.99783 2 7.72934 2.11589 7.53139 2.32218C7.33343 2.52847 7.22222 2.80826 7.22222 3.1C7.22222 3.39174 7.33343 3.67153 7.53139 3.87782C7.72934 4.08411 7.99783 4.2 8.27778 4.2H9.33333V5.344C9.33333 7.5363 8.51 8.93 6.29439 10.47C5.32365 11.08 4.5141 11.9324 3.9389 12.9503C3.36371 13.9683 3.04102 15.1195 3 16.3C3 20.5449 7.26128 24 12.5 24C17.7387 24 22 20.5449 22 16.3C21.959 15.1195 21.6363 13.9683 21.0611 12.9503C20.4859 11.9324 19.6763 11.08 18.7056 10.47ZM13.5556 18.5C13.5556 18.2824 13.6175 18.0698 13.7334 17.8889C13.8494 17.708 14.0143 17.567 14.2072 17.4837C14.4 17.4005 14.6123 17.3787 14.817 17.4211C15.0218 17.4636 15.2099 17.5683 15.3575 17.7222C15.5051 17.876 15.6057 18.072 15.6464 18.2854C15.6871 18.4988 15.6662 18.72 15.5863 18.921C15.5064 19.122 15.3711 19.2937 15.1975 19.4146C15.024 19.5355 14.8199 19.6 14.6111 19.6C14.3312 19.6 14.0627 19.4841 13.8647 19.2778C13.6668 19.0715 13.5556 18.7917 13.5556 18.5ZM7.46711 12.2949C9.43889 10.9265 11.4444 9.0312 11.4444 5.344V4.2H13.5556V5.344C13.5556 9.0312 15.5611 10.9265 17.5329 12.2938C18.2901 12.8046 18.9191 13.4967 19.3674 14.3123C16.697 13.9007 13.9699 14.2063 11.4444 15.2C9.45123 15.9802 7.2606 16.0191 5.24306 15.31C5.60746 14.0563 6.39826 12.9843 7.46711 12.2949Z" fill="#4D439F"/>
<path d="M12.5 11.9C13.083 11.9 13.5556 11.4075 13.5556 10.8C13.5556 10.1925 13.083 9.7 12.5 9.7C11.917 9.7 11.4444 10.1925 11.4444 10.8C11.4444 11.4075 11.917 11.9 12.5 11.9Z" fill="#4D439F"/>
</svg>
