<svg width="25" height="25" viewBox="0 0 25 25" fill="none" xmlns="http://www.w3.org/2000/svg">
<rect width="25" height="25" fill="white"/>
<path d="M21.4167 9.5C21.704 9.5 21.9795 9.38586 22.1827 9.1827C22.3859 8.97953 22.5 8.70398 22.5 8.41667V4.08333C22.5 3.79602 22.3859 3.52047 22.1827 3.3173C21.9795 3.11414 21.704 3 21.4167 3H17.0833C16.796 3 16.5205 3.11414 16.3173 3.3173C16.1141 3.52047 16 3.79602 16 4.08333V5.16667H9.5V4.08333C9.5 3.79602 9.38586 3.52047 9.1827 3.3173C8.97953 3.11414 8.70398 3 8.41667 3H4.08333C3.79602 3 3.52047 3.11414 3.3173 3.3173C3.11414 3.52047 3 3.79602 3 4.08333V8.41667C3 8.70398 3.11414 8.97953 3.3173 9.1827C3.52047 9.38586 3.79602 9.5 4.08333 9.5H5.16667V16H4.08333C3.79602 16 3.52047 16.1141 3.3173 16.3173C3.11414 16.5205 3 16.796 3 17.0833V21.4167C3 21.704 3.11414 21.9795 3.3173 22.1827C3.52047 22.3859 3.79602 22.5 4.08333 22.5H8.41667C8.70398 22.5 8.97953 22.3859 9.1827 22.1827C9.38586 21.9795 9.5 21.704 9.5 21.4167V20.3333H16V21.4167C16 21.704 16.1141 21.9795 16.3173 22.1827C16.5205 22.3859 16.796 22.5 17.0833 22.5H21.4167C21.704 22.5 21.9795 22.3859 22.1827 22.1827C22.3859 21.9795 22.5 21.704 22.5 21.4167V17.0833C22.5 16.796 22.3859 16.5205 22.1827 16.3173C21.9795 16.1141 21.704 16 21.4167 16H20.3333V9.5H21.4167ZM18.1667 16H17.0833C16.796 16 16.5205 16.1141 16.3173 16.3173C16.1141 16.5205 16 16.796 16 17.0833V18.1667H9.5V17.0833C9.5 16.796 9.38586 16.5205 9.1827 16.3173C8.97953 16.1141 8.70398 16 8.41667 16H7.33333V9.5H8.41667C8.70398 9.5 8.97953 9.38586 9.1827 9.1827C9.38586 8.97953 9.5 8.70398 9.5 8.41667V7.33333H16V8.41667C16 8.70398 16.1141 8.97953 16.3173 9.1827C16.5205 9.38586 16.796 9.5 17.0833 9.5H18.1667V16Z" fill="#4D439F"/>
</svg>
