<svg width="50" height="50" viewBox="0 0 50 50" fill="none" xmlns="http://www.w3.org/2000/svg">
<rect width="50" height="50" fill="white"/>
<rect x="2" y="2" width="46" height="46" rx="10" fill="url(#paint0_linear_1_5)"/>
<path d="M33.6667 21.75C33.954 21.75 34.2295 21.6359 34.4327 21.4327C34.6359 21.2295 34.75 20.954 34.75 20.6667V16.3333C34.75 16.046 34.6359 15.7705 34.4327 15.5673C34.2295 15.3641 33.954 15.25 33.6667 15.25H29.3333C29.046 15.25 28.7705 15.3641 28.5673 15.5673C28.3641 15.7705 28.25 16.046 28.25 16.3333V17.4167H21.75V16.3333C21.75 16.046 21.6359 15.7705 21.4327 15.5673C21.2295 15.3641 20.954 15.25 20.6667 15.25H16.3333C16.046 15.25 15.7705 15.3641 15.5673 15.5673C15.3641 15.7705 15.25 16.046 15.25 16.3333V20.6667C15.25 20.954 15.3641 21.2295 15.5673 21.4327C15.7705 21.6359 16.046 21.75 16.3333 21.75H17.4167V28.25H16.3333C16.046 28.25 15.7705 28.3641 15.5673 28.5673C15.3641 28.7705 15.25 29.046 15.25 29.3333V33.6667C15.25 33.954 15.3641 34.2295 15.5673 34.4327C15.7705 34.6359 16.046 34.75 16.3333 34.75H20.6667C20.954 34.75 21.2295 34.6359 21.4327 34.4327C21.6359 34.2295 21.75 33.954 21.75 33.6667V32.5833H28.25V33.6667C28.25 33.954 28.3641 34.2295 28.5673 34.4327C28.7705 34.6359 29.046 34.75 29.3333 34.75H33.6667C33.954 34.75 34.2295 34.6359 34.4327 34.4327C34.6359 34.2295 34.75 33.954 34.75 33.6667V29.3333C34.75 29.046 34.6359 28.7705 34.4327 28.5673C34.2295 28.3641 33.954 28.25 33.6667 28.25H32.5833V21.75H33.6667ZM30.4167 28.25H29.3333C29.046 28.25 28.7705 28.3641 28.5673 28.5673C28.3641 28.7705 28.25 29.046 28.25 29.3333V30.4167H21.75V29.3333C21.75 29.046 21.6359 28.7705 21.4327 28.5673C21.2295 28.3641 20.954 28.25 20.6667 28.25H19.5833V21.75H20.6667C20.954 21.75 21.2295 21.6359 21.4327 21.4327C21.6359 21.2295 21.75 20.954 21.75 20.6667V19.5833H28.25V20.6667C28.25 20.954 28.3641 21.2295 28.5673 21.4327C28.7705 21.6359 29.046 21.75 29.3333 21.75H30.4167V28.25Z" fill="white"/>
<defs>
<linearGradient id="paint0_linear_1_5" x1="53.5" y1="11.5" x2="25" y2="48" gradientUnits="userSpaceOnUse">
<stop stop-color="#414996"/>
<stop offset="1" stop-color="#B200F1"/>
</linearGradient>
</defs>
</svg>
