<svg width="50" height="50" viewBox="0 0 50 50" fill="none" xmlns="http://www.w3.org/2000/svg">
<rect width="50" height="50" fill="white"/>
<rect x="2" y="2" width="46" height="46" rx="10" fill="url(#paint0_linear_1_13)"/>
<path d="M34.8941 14.1037C35.2447 14.4541 35.5228 14.8702 35.7126 15.3282C35.9023 15.7862 36 16.277 36 16.7728C36 17.2685 35.9023 17.7594 35.7126 18.2173C35.5228 18.6753 35.2447 19.0914 34.8941 19.4418L33.0496 21.2819L27.7167 15.9484L29.5612 14.1037C30.2687 13.397 31.2277 13 32.2276 13C33.2276 13 34.1866 13.397 34.8941 14.1037ZM21.3444 32.9942L31.3999 22.9364L26.0624 17.5983L16.0057 27.6549L15 34L21.3444 32.9942Z" fill="white"/>
<defs>
<linearGradient id="paint0_linear_1_13" x1="53.5" y1="11.5" x2="25" y2="48" gradientUnits="userSpaceOnUse">
<stop stop-color="#414996"/>
<stop offset="1" stop-color="#B200F1"/>
</linearGradient>
</defs>
</svg>
