<svg width="50" height="50" viewBox="0 0 50 50" fill="none" xmlns="http://www.w3.org/2000/svg">
<rect width="50" height="50" fill="white"/>
<rect x="2" y="2" width="46" height="46" rx="10" fill="url(#paint0_linear_1_37)"/>
<path d="M34.816 23.194C35.1018 24.6551 35.0474 26.1624 34.657 27.5991C34.2667 29.0358 33.5508 30.3634 32.565 31.479C30.5 33.789 27.828 34 25 34C22.172 34 19.491 33.789 17.432 31.479C16.4471 30.3629 15.7321 29.0352 15.3422 27.5985C14.9524 26.1619 14.8983 24.6549 15.184 23.194C16.5278 22.891 17.9293 22.9663 19.2329 23.4115C20.5365 23.8567 21.6912 24.6544 22.569 25.716C23.8094 27.1086 24.6495 28.8113 25 30.643C25.3463 28.8113 26.1842 27.1082 27.424 25.716C28.3034 24.6544 29.4594 23.8569 30.7641 23.4118C32.0687 22.9667 33.4711 22.8913 34.816 23.194ZM25 16C23.0385 17.3839 21.6928 19.477 21.248 21.836C22.3072 22.4079 23.2593 23.159 24.062 24.056C24.3984 24.4319 24.7117 24.828 25 25.242C25.2874 24.8275 25.6 24.4311 25.936 24.055C26.7405 23.1567 27.6947 22.4046 28.756 21.832C28.31 19.4735 26.9628 17.3816 25 16Z" fill="white"/>
<defs>
<linearGradient id="paint0_linear_1_37" x1="53.5" y1="11.5" x2="25" y2="48" gradientUnits="userSpaceOnUse">
<stop stop-color="#414996"/>
<stop offset="1" stop-color="#B200F1"/>
</linearGradient>
</defs>
</svg>
