<svg width="25" height="25" viewBox="0 0 25 25" fill="none" xmlns="http://www.w3.org/2000/svg">
<rect width="25" height="25" fill="white"/>
<path d="M22 5H4C3.73478 5 3.48043 5.09877 3.29289 5.27459C3.10536 5.4504 3 5.68886 3 5.9375V19.0625C3 19.3111 3.10536 19.5496 3.29289 19.7254C3.48043 19.9012 3.73478 20 4 20H22C22.2652 20 22.5196 19.9012 22.7071 19.7254C22.8946 19.5496 23 19.3111 23 19.0625V5.9375C23 5.68886 22.8946 5.4504 22.7071 5.27459C22.5196 5.09877 22.2652 5 22 5ZM8 7.8125C8.39556 7.8125 8.78224 7.92247 9.11114 8.12849C9.44004 8.33452 9.69638 8.62736 9.84776 8.96997C9.99913 9.31258 10.0387 9.68958 9.96157 10.0533C9.8844 10.417 9.69392 10.7511 9.41421 11.0133C9.13451 11.2755 8.77814 11.4541 8.39018 11.5265C8.00222 11.5988 7.60008 11.5617 7.23463 11.4198C6.86918 11.2779 6.55682 11.0375 6.33706 10.7292C6.1173 10.4209 6 10.0583 6 9.6875C6 9.19022 6.21071 8.71331 6.58579 8.36167C6.96086 8.01004 7.46957 7.8125 8 7.8125ZM21 18.125H5V16.5622L9 13.4375L11.857 15.4466L17 10.625L21 15.6247V18.125Z" fill="#4D439F"/>
</svg>
