<svg width="25" height="25" viewBox="0 0 25 25" fill="none" xmlns="http://www.w3.org/2000/svg">
<rect width="25" height="25" fill="white"/>
<path d="M13.9764 9.28247C14.5096 9.53704 14.9739 9.91585 15.3303 10.3871C15.6868 10.8583 15.9249 11.4082 16.0248 11.9905C16.1246 12.5729 16.0832 13.1707 15.9041 13.7337C15.725 14.2968 15.4134 14.8086 14.9955 15.2262L11.3032 18.9185C10.6107 19.611 9.67158 20 8.69232 20C7.71306 20 6.7739 19.611 6.08146 18.9185C5.38901 18.2261 5 17.2869 5 16.3077C5 15.3284 5.38901 14.3893 6.08146 13.6968L7.52309 12.2552M18.4769 11.7448L19.9185 10.3032C20.611 9.61074 21 8.67158 21 7.69232C21 6.71306 20.611 5.7739 19.9185 5.08146C19.2261 4.38901 18.2869 4 17.3077 4C16.3284 4 15.3893 4.38901 14.6968 5.08146L11.0045 8.77375C10.5866 9.1914 10.275 9.70324 10.0959 10.2663C9.91677 10.8293 9.8754 11.4271 9.97525 12.0095C10.0751 12.5918 10.3132 13.1417 10.6697 13.6129C11.0261 14.0842 11.4904 14.463 12.0236 14.7175" stroke="#4D439F" stroke-width="2" stroke-linecap="round" stroke-linejoin="round"/>
</svg>
