<svg width="250" height="250" viewBox="0 0 250 250" fill="none" xmlns="http://www.w3.org/2000/svg">
<g clip-path="url(#clip0_15_2)">
<path fill-rule="evenodd" clip-rule="evenodd" d="M40 0C17.9086 0 0 17.9086 0 40V210C0 232.091 17.9086 250 40 250H210C232.091 250 250 232.091 250 210V40C250 17.9086 232.091 0 210 0H40ZM83.555 58L60 200H98.5193L105.557 157.844H126.785C137.685 157.844 147.523 155.856 156.298 151.881C165.12 147.859 172.371 142.151 178.052 134.755C183.779 127.313 187.474 118.461 189.137 108.199C190.799 98.1224 190.06 89.3167 186.92 81.7822C183.779 74.2477 178.606 68.4004 171.401 64.2402C164.196 60.0801 155.328 58 144.798 58H83.555ZM110.558 127.891H124.014C128.633 127.891 132.697 127.105 136.207 125.533C139.717 123.915 142.558 121.65 144.729 118.738C146.899 115.78 148.308 112.267 148.955 108.199C149.601 104.132 149.301 100.665 148.054 97.7988C146.853 94.8867 144.775 92.668 141.819 91.1426C138.909 89.571 135.191 88.7852 130.665 88.7852H117.086L110.558 127.891Z" fill="url(#paint0_linear_15_2)"/>
</g>
<defs>
<linearGradient id="paint0_linear_15_2" x1="184.5" y1="52" x2="36" y2="225" gradientUnits="userSpaceOnUse">
<stop stop-color="#2A1468"/>
<stop offset="1" stop-color="#954FEF"/>
</linearGradient>
<clipPath id="clip0_15_2">
<rect width="250" height="250" fill="white"/>
</clipPath>
</defs>
</svg>
